<?xml version="1.0" encoding="UTF-8" standalone="no" ?>
<!DOCTYPE svg PUBLIC "-//W3C//DTD SVG 1.1//EN" "http://www.w3.org/Graphics/SVG/1.1/DTD/svg11.dtd">
<svg xmlns="http://www.w3.org/2000/svg" xmlns:xlink="http://www.w3.org/1999/xlink" version="1.1" width="1280" height="1024" viewBox="0 0 1280 1024" xml:space="preserve">
<desc>Created with Fabric.js 5.3.0</desc>
<defs>
</defs>
<g transform="matrix(1 0 0 1 640 512)" id="background-logo"  >
<rect style="stroke: none; stroke-width: 0; stroke-dasharray: none; stroke-linecap: butt; stroke-dashoffset: 0; stroke-linejoin: miter; stroke-miterlimit: 4; fill: rgb(255,255,255); fill-opacity: 0; fill-rule: nonzero; opacity: 1;"  paint-order="stroke"  x="-640" y="-512" rx="0" ry="0" width="1280" height="1024" />
</g>
<g transform="matrix(2.1424156141125703 0 0 2.1424156141125703 256.5885198267845 506.5149647442964)" id="logo-logo"  >
<g style=""  paint-order="stroke"   >
		<g transform="matrix(0.743776204741699 0 0 -0.743776204741699 0 2.842171e-14)"  >
<linearGradient id="SVGID_3_2_2_453227" gradientUnits="userSpaceOnUse" gradientTransform="matrix(1 0 0 1 126.48722052005598 161.725)"  x1="123.04876530155838" y1="0" x2="123.04876530155849" y2="222.1620000000001">
<stop offset="0%" style="stop-color:rgb(46,24,106);stop-opacity: 1"/>
<stop offset="81.08109999999999%" style="stop-color:rgb(46,24,106);stop-opacity: 1"/>
<stop offset="100%" style="stop-color:rgb(46,24,106);stop-opacity: 1"/>
</linearGradient>
<path style="stroke: none; stroke-width: 1; stroke-dasharray: none; stroke-linecap: butt; stroke-dashoffset: 0; stroke-linejoin: miter; stroke-miterlimit: 4; fill: url(#SVGID_3_2_2_453227); fill-rule: nonzero; opacity: 1;"  paint-order="stroke"  transform=" translate(-249.53598582161442, -272.80600000000004)" d="M 221.638 383.887 C 212.038 383.887 203.752 377.045 201.934 367.626 L 201.934 367.626 L 197.703 345.73699999999997 L 186.793 345.73699999999997 C 168.894 345.73699999999997 153.43900000000002 332.998 150.054 315.44499999999994 L 150.054 315.44499999999994 L 127.026 196.357 C 123.553 178.398 137.311 161.725 155.603 161.725 L 155.603 161.725 L 155.39100000000002 163.22299999999998 C 154.87900000000002 166.76199999999997 154.61100000000002 169.92299999999997 154.54700000000003 173.00099999999998 L 154.54700000000003 173.00099999999998 C 154.41200000000003 174.26799999999997 154.41800000000003 175.53499999999997 154.41800000000003 176.801 L 154.41800000000003 176.801 C 154.41800000000003 229.26399999999998 197.07100000000003 271.948 249.50100000000003 271.948 L 249.50100000000003 271.948 C 301.97 271.948 344.653 229.26399999999998 344.653 176.801 L 344.653 176.801 C 344.653 175.535 344.66 174.268 344.51800000000003 172.893 L 344.51800000000003 172.893 C 344.461 169.923 344.192 166.755 343.68 163.223 L 343.68 163.223 L 343.47 161.72500000000002 C 361.76000000000005 161.72500000000002 375.519 178.39800000000002 372.04600000000005 196.35700000000003 L 372.04600000000005 196.35700000000003 L 349.01700000000005 315.44500000000005 C 345.63200000000006 332.99800000000005 330.17800000000005 345.7370000000001 312.27900000000005 345.7370000000001 L 312.27900000000005 345.7370000000001 L 301.36300000000006 345.7370000000001 L 297.13100000000003 367.6290000000001 C 295.314 377.0490000000001 287.02700000000004 383.88700000000006 277.42800000000005 383.88700000000006 L 277.42800000000005 383.88700000000006 z M 214.157 365.261 C 214.848 368.838 217.996 371.43300000000005 221.638 371.43300000000005 L 221.638 371.43300000000005 L 277.428 371.43300000000005 C 281.069 371.43300000000005 284.218 368.838 284.908 365.26400000000007 L 284.908 365.26400000000007 L 288.682 345.7370000000001 L 210.383 345.7370000000001 z M 172.76600000000002 176.80100000000002 L 172.836 172.79000000000002 C 173.03500000000003 169.42900000000003 173.437 166.07100000000003 174.03900000000002 162.80100000000002 L 174.03900000000002 162.80100000000002 L 174.23100000000002 161.72500000000002 L 186.966 161.72500000000002 L 186.633 163.306 C 185.96200000000002 166.531 185.526 169.77 185.353 172.937 L 185.353 172.937 C 185.28300000000002 174.22400000000002 185.21900000000002 175.51500000000001 185.21900000000002 176.80100000000002 L 185.21900000000002 176.80100000000002 C 185.21900000000002 212.28000000000003 214.055 241.149 249.50100000000003 241.149 L 249.50100000000003 241.149 C 284.985 241.149 313.85300000000007 212.28 313.85300000000007 176.801 L 313.85300000000007 176.801 C 313.85300000000007 175.515 313.78900000000004 174.224 313.72600000000006 172.94299999999998 L 313.72600000000006 172.94299999999998 C 313.54600000000005 169.78199999999998 313.11000000000007 166.54399999999998 312.4390000000001 163.30599999999998 L 312.4390000000001 163.30599999999998 L 312.1120000000001 161.725 L 324.8350000000001 161.725 L 325.0330000000001 162.801 C 325.63400000000007 166.01299999999998 326.0370000000001 169.379 326.2420000000001 172.867 L 326.2420000000001 172.867 L 326.3070000000001 176.801 C 326.3070000000001 219.147 291.8520000000001 253.60199999999998 249.5010000000001 253.60199999999998 L 249.5010000000001 253.60199999999998 C 207.1880000000001 253.60199999999998 172.76600000000008 219.147 172.76600000000008 176.801 M 203.5660000000001 176.801 C 203.5660000000001 175.445 203.63600000000008 174.089 203.7710000000001 172.765 L 203.7710000000001 172.765 C 204.0270000000001 169.42899999999997 204.7300000000001 166.01299999999998 205.8630000000001 162.62099999999998 L 205.8630000000001 162.62099999999998 L 206.1580000000001 161.725 L 219.6150000000001 161.725 L 218.7900000000001 163.57399999999998 C 217.4210000000001 166.63899999999998 216.5760000000001 169.807 216.2620000000001 173.065 L 216.2620000000001 173.065 C 216.0760000000001 174.307 216.01900000000012 175.555 216.01900000000012 176.801 L 216.01900000000012 176.801 C 216.01900000000012 195.265 231.03900000000013 210.284 249.50100000000012 210.284 L 249.50100000000012 210.284 C 268.0020000000001 210.284 283.0530000000001 195.265 283.0530000000001 176.801 L 283.0530000000001 176.801 C 283.0530000000001 175.55499999999998 282.9950000000001 174.307 282.79700000000014 172.988 L 282.79700000000014 172.988 C 282.49600000000015 169.795 281.6510000000001 166.627 280.2880000000001 163.574 L 280.2880000000001 163.574 L 279.46300000000014 161.72500000000002 L 292.91400000000016 161.72500000000002 L 293.2090000000002 162.621 C 294.3410000000002 166.013 295.0450000000002 169.429 295.3020000000002 172.732 L 295.3020000000002 172.732 C 295.4360000000002 174.089 295.5060000000002 175.445 295.5060000000002 176.801 L 295.5060000000002 176.801 C 295.5060000000002 202.13099999999997 274.8680000000002 222.737 249.5010000000002 222.737 L 249.5010000000002 222.737 C 224.1720000000002 222.737 203.5660000000002 202.131 203.5660000000002 176.801 M 234.4300000000002 176.801 C 234.4300000000002 175.30499999999998 234.6480000000002 173.85199999999998 235.0760000000002 172.48999999999998 L 235.0760000000002 172.48999999999998 C 236.99700000000018 166.051 242.7950000000002 161.72499999999997 249.5010000000002 161.72499999999997 L 249.5010000000002 161.72499999999997 C 256.2140000000002 161.72499999999997 262.0630000000002 166.04499999999996 264.0730000000002 172.53499999999997 L 264.0730000000002 172.53499999999997 C 264.4560000000002 173.99299999999997 264.6410000000002 175.38699999999997 264.6410000000002 176.80099999999996 L 264.6410000000002 176.80099999999996 C 264.6410000000002 185.14699999999996 257.8520000000002 191.93699999999995 249.5010000000002 191.93699999999995 L 249.5010000000002 191.93699999999995 C 241.1950000000002 191.93699999999995 234.4300000000002 185.14699999999996 234.4300000000002 176.80099999999996" stroke-linecap="round" />
</g>
</g>
</g>
<g transform="matrix(1.9211538461538462 0 0 1.9211538461538462 875.0433212451302 506.5022577567187)" id="text-logo"  >
<g style=""  paint-order="stroke"   >
		<g transform="matrix(1 0 0 1 0 -58.713441600641175)" id="text-logo-path-0"  >
<path style="stroke: none; stroke-width: 0; stroke-dasharray: none; stroke-linecap: butt; stroke-dashoffset: 0; stroke-linejoin: miter; stroke-miterlimit: 4; fill: rgb(46,24,106); fill-rule: nonzero; opacity: 1;"  paint-order="stroke"  transform=" translate(-196.14499999999998, 33.37)" d="M 5.91 -66.74 L 5.91 0 L 19.8 0 L 19.8 -24.19 L 29.65 -24.19 L 43.18 0 L 58.77 0 L 43.54 -26.61 Q 48.82 -29.03 51.96 -33.82 Q 55.09 -38.61 55.09 -45.42 L 55.09 -45.42 Q 55.09 -52.41 52.05 -57.15 Q 49 -61.9 43.67 -64.32 Q 38.34 -66.74 31.44 -66.74 L 31.44 -66.74 L 5.91 -66.74 Z M 31.53 -36.28 L 19.8 -36.28 L 19.8 -54.65 L 31.53 -54.65 Q 35.92 -54.65 38.57 -52.14 Q 41.21 -49.63 41.21 -45.42 L 41.21 -45.42 Q 41.21 -41.3 38.57 -38.79 Q 35.92 -36.28 31.53 -36.28 L 31.53 -36.28 Z M 83.58 -66.74 L 83.58 0 L 128.46 0 L 128.46 -12.09 L 97.47 -12.09 L 97.47 -27.41 L 126.67 -27.41 L 126.67 -39.51 L 97.47 -39.51 L 97.47 -54.65 L 128.46 -54.65 L 128.46 -66.74 L 83.58 -66.74 Z M 166.27 -54.65 L 166.27 0 L 180.15 0 L 180.15 -54.65 L 196.82 -54.65 L 196.82 -66.74 L 149.34 -66.74 L 149.34 -54.65 L 166.27 -54.65 Z M 234.8 -66.74 L 212.22 0 L 227.27 0 L 231.75 -13.62 L 256.21 -13.62 L 260.69 0 L 275.83 0 L 253.25 -66.74 L 234.8 -66.74 Z M 252.36 -25.71 L 235.61 -25.71 L 244.03 -51.42 L 252.36 -25.71 Z M 300.64 -66.74 L 300.64 0 L 314.53 0 L 314.53 -66.74 L 300.64 -66.74 Z M 344.27 -66.74 L 344.27 0 L 386.38 0 L 386.38 -12.09 L 358.16 -12.09 L 358.16 -66.74 L 344.27 -66.74 Z" stroke-linecap="round" />
</g>
		<g transform="matrix(1 0 0 1 0.022396033567588347 58.713441600641204)" id="text-logo-path-1"  >
<path style="stroke: none; stroke-width: 0; stroke-dasharray: none; stroke-linecap: butt; stroke-dashoffset: 0; stroke-linejoin: miter; stroke-miterlimit: 4; fill: rgb(46,24,106); fill-rule: nonzero; opacity: 1;"  paint-order="stroke"  transform=" translate(-195.38, 33.37)" d="M 5.91 -66.74 L 5.91 0 L 19.8 0 L 19.8 -24.19 L 29.65 -24.19 L 43.18 0 L 58.77 0 L 43.54 -26.61 Q 48.82 -29.03 51.96 -33.82 Q 55.09 -38.61 55.09 -45.42 L 55.09 -45.42 Q 55.09 -52.41 52.05 -57.15 Q 49 -61.9 43.67 -64.32 Q 38.34 -66.74 31.44 -66.74 L 31.44 -66.74 L 5.91 -66.74 Z M 31.53 -36.28 L 19.8 -36.28 L 19.8 -54.65 L 31.53 -54.65 Q 35.92 -54.65 38.57 -52.14 Q 41.21 -49.63 41.21 -45.42 L 41.21 -45.42 Q 41.21 -41.3 38.57 -38.79 Q 35.92 -36.28 31.53 -36.28 L 31.53 -36.28 Z M 101.23 -66.74 L 78.65 0 L 93.71 0 L 98.18 -13.62 L 122.64 -13.62 L 127.12 0 L 142.26 0 L 119.68 -66.74 L 101.23 -66.74 Z M 118.79 -25.71 L 102.04 -25.71 L 110.46 -51.42 L 118.79 -25.71 Z M 167.07 -66.74 L 167.07 0 L 188.84 0 Q 199.68 0 207.66 -4.3 Q 215.63 -8.6 220.02 -16.17 Q 224.41 -23.74 224.41 -33.41 L 224.41 -33.41 Q 224.41 -43.09 220.02 -50.62 Q 215.63 -58.14 207.66 -62.44 Q 199.68 -66.74 188.84 -66.74 L 188.84 -66.74 L 167.07 -66.74 Z M 189.2 -12.09 L 180.96 -12.09 L 180.96 -54.65 L 189.2 -54.65 Q 195.74 -54.65 200.49 -52.05 Q 205.24 -49.45 207.88 -44.7 Q 210.52 -39.95 210.52 -33.41 L 210.52 -33.41 Q 210.52 -26.96 207.88 -22.17 Q 205.24 -17.38 200.49 -14.74 Q 195.74 -12.09 189.2 -12.09 L 189.2 -12.09 Z M 266.15 -66.74 L 243.58 0 L 258.63 0 L 263.11 -13.62 L 287.57 -13.62 L 292.04 0 L 307.18 0 L 284.61 -66.74 L 266.15 -66.74 Z M 283.71 -25.71 L 266.96 -25.71 L 275.38 -51.42 L 283.71 -25.71 Z M 332 -66.74 L 332 0 L 345.88 0 L 345.88 -24.19 L 355.74 -24.19 L 369.27 0 L 384.85 0 L 369.62 -26.61 Q 374.91 -29.03 378.05 -33.82 Q 381.18 -38.61 381.18 -45.42 L 381.18 -45.42 Q 381.18 -52.41 378.13 -57.15 Q 375.09 -61.9 369.76 -64.32 Q 364.43 -66.74 357.53 -66.74 L 357.53 -66.74 L 332 -66.74 Z M 357.62 -36.28 L 345.88 -36.28 L 345.88 -54.65 L 357.62 -54.65 Q 362.01 -54.65 364.65 -52.14 Q 367.29 -49.63 367.29 -45.42 L 367.29 -45.42 Q 367.29 -41.3 364.65 -38.79 Q 362.01 -36.28 357.62 -36.28 L 357.62 -36.28 Z" stroke-linecap="round" />
</g>
</g>
</g>
</svg>